<svg width="186" height="18" viewBox="0 0 186 18" fill="none" xmlns="http://www.w3.org/2000/svg">
<path d="M10.6289 9.67578C11.0977 10.0586 11.4375 10.4297 11.6484 10.7891C11.8672 11.1406 12.0508 11.6562 12.1992 12.3359L12.5391 13.9766C12.6641 14.5703 12.7812 14.9961 12.8906 15.2539C13.0078 15.5039 13.1602 15.7109 13.3477 15.875C13.543 16.0312 13.8086 16.1484 14.1445 16.2266L13.9805 17H9.79688C9.53906 16.2656 9.3125 15.3945 9.11719 14.3867L8.74219 12.4414C8.63281 11.8555 8.50391 11.3945 8.35547 11.0586C8.20703 10.7227 8.01953 10.4805 7.79297 10.332C7.56641 10.1836 7.26172 10.1094 6.87891 10.1094H6.15234L5.30859 13.8359C5.25391 14.0938 5.21484 14.3164 5.19141 14.5039C5.16797 14.6914 5.15625 14.9258 5.15625 15.207C5.15625 15.5664 5.24609 15.8203 5.42578 15.9688C5.61328 16.1172 5.90234 16.2031 6.29297 16.2266L6.12891 17H0.0703125L0.234375 16.2266C0.5625 16.1328 0.8125 16.0039 0.984375 15.8398C1.16406 15.6758 1.31641 15.4453 1.44141 15.1484C1.56641 14.8438 1.69141 14.4062 1.81641 13.8359L3.94922 4.16797C4.05078 3.70703 4.10156 3.25 4.10156 2.79688C4.10156 2.46875 4.02344 2.23047 3.86719 2.08203C3.71875 1.92578 3.47266 1.82422 3.12891 1.77734L3.29297 1.00391H9.14062C9.92969 1.00391 10.5508 1.02734 11.0039 1.07422C11.4648 1.11328 11.9023 1.19922 12.3164 1.33203C12.7383 1.45703 13.0977 1.61719 13.3945 1.8125C13.6992 2 13.957 2.22656 14.168 2.49219C14.3867 2.75781 14.5508 3.06641 14.6602 3.41797C14.7773 3.76953 14.8359 4.16406 14.8359 4.60156C14.8359 5.78125 14.4883 6.78125 13.793 7.60156C13.0977 8.42188 12.0391 9.07812 10.6172 9.57031L10.6289 9.67578ZM7.19531 8.73828C7.96875 8.73828 8.60547 8.64844 9.10547 8.46875C9.61328 8.28906 10.0352 8.01172 10.3711 7.63672C10.707 7.26172 10.9648 6.82422 11.1445 6.32422C11.3242 5.82422 11.4141 5.26172 11.4141 4.63672C11.4141 3.87891 11.2227 3.3125 10.8398 2.9375C10.457 2.5625 9.85156 2.375 9.02344 2.375C8.42969 2.375 8.03125 2.38281 7.82812 2.39844L6.45703 8.73828H7.19531Z" fill="#FED136"/>
<path d="M18.4453 1.00391H22.8984L25.1602 7.63672C25.7773 9.44141 26.2656 11.0352 26.625 12.418H26.7773C27.0039 11.0664 27.3008 9.57031 27.668 7.92969L28.4883 4.16797C28.5898 3.69922 28.6406 3.24219 28.6406 2.79688C28.6406 2.46875 28.5625 2.23047 28.4062 2.08203C28.2578 1.92578 28.0117 1.82422 27.668 1.77734L27.832 1.00391H32.1445L31.9805 1.77734C31.6523 1.87109 31.3984 2 31.2188 2.16406C31.0469 2.32812 30.8984 2.5625 30.7734 2.86719C30.6484 3.16406 30.5234 3.59766 30.3984 4.16797L27.5742 17H24.9023L22.0898 8.80859C21.8711 8.16797 21.6758 7.57031 21.5039 7.01562C21.332 6.45312 21.125 5.74219 20.8828 4.88281L20.707 4.87109C20.6445 5.39453 20.5234 6.11719 20.3438 7.03906C20.1719 7.95312 19.9648 8.94531 19.7227 10.0156L18.8789 13.8359C18.832 14.0391 18.8008 14.1992 18.7852 14.3164C18.7695 14.4336 18.7539 14.5625 18.7383 14.7031C18.7305 14.8359 18.7266 15.0039 18.7266 15.207C18.7266 15.5352 18.8008 15.7773 18.9492 15.9336C19.1055 16.082 19.3555 16.1797 19.6992 16.2266L19.5352 17H15.2227L15.3867 16.2266C15.7148 16.1328 15.9648 16.0039 16.1367 15.8398C16.3164 15.6758 16.4688 15.4453 16.5938 15.1484C16.7188 14.8438 16.8438 14.4062 16.9688 13.8359L19.1016 4.16797C19.2031 3.70703 19.2539 3.25 19.2539 2.79688C19.2539 2.46875 19.1758 2.23047 19.0195 2.08203C18.8711 1.92578 18.625 1.82422 18.2812 1.77734L18.4453 1.00391Z" fill="#FED136"/>
<path d="M40.5117 12.6523C40.5742 12.3633 40.6133 12.125 40.6289 11.9375C40.6445 11.7422 40.6523 11.5664 40.6523 11.4102C40.6523 11.0898 40.5781 10.8516 40.4297 10.6953C40.2812 10.5312 40.0273 10.4258 39.668 10.3789L39.832 9.60547H45.5508L45.3867 10.3789C45.082 10.4805 44.8555 10.6055 44.707 10.7539C44.5586 10.8945 44.4258 11.1055 44.3086 11.3867C44.1914 11.6602 44.0625 12.1211 43.9219 12.7695L43.0195 16.8125L41.4023 17.1875L40.7812 16.3555C39.7578 16.9102 38.6914 17.1875 37.582 17.1875C35.9414 17.1875 34.6797 16.7266 33.7969 15.8047C32.9219 14.8828 32.4844 13.5508 32.4844 11.8086C32.4844 10.957 32.6016 9.99219 32.8359 8.91406C33.0703 7.83594 33.3945 6.85938 33.8086 5.98438C34.2227 5.10156 34.707 4.33594 35.2617 3.6875C35.8164 3.03125 36.4297 2.49219 37.1016 2.07031C37.7734 1.64062 38.4766 1.32422 39.2109 1.12109C39.9531 0.917969 40.75 0.816406 41.6016 0.816406C43.2578 0.816406 44.7422 1.03906 46.0547 1.48438L45.3398 4.83594H43.8047C43.8047 4.15625 43.7305 3.62891 43.582 3.25391C43.4414 2.87109 43.2227 2.59766 42.9258 2.43359C42.6289 2.26953 42.2305 2.1875 41.7305 2.1875C41.2383 2.1875 40.7773 2.28906 40.3477 2.49219C39.8477 2.73438 39.3789 3.10547 38.9414 3.60547C38.4258 4.19141 37.9609 4.95312 37.5469 5.89062C37.0938 6.90625 36.7031 8.09766 36.375 9.46484C36.0938 10.668 35.9531 11.7969 35.9531 12.8516C35.9531 13.8359 36.1133 14.5781 36.4336 15.0781C36.7617 15.5703 37.2539 15.8164 37.9102 15.8164C38.3008 15.8164 38.6328 15.75 38.9062 15.6172C39.1797 15.4766 39.4102 15.293 39.5977 15.0664C39.793 14.8398 39.9492 14.582 40.0664 14.293C40.1836 13.9961 40.2773 13.6953 40.3477 13.3906L40.5117 12.6523Z" fill="#FED136"/>
<path d="M61.0078 15.6406C60.4844 15.9531 60.0508 16.1953 59.707 16.3672C59.3711 16.5312 59.0117 16.6758 58.6289 16.8008C58.2539 16.9258 57.8398 17.0195 57.3867 17.082C56.9414 17.1523 56.4336 17.1875 55.8633 17.1875C55.043 17.1875 54.332 17.0469 53.7305 16.7656C53.1289 16.4766 52.6719 16.0781 52.3594 15.5703C52.0547 15.0547 51.9023 14.4648 51.9023 13.8008C51.9023 12.7773 52.2891 11.832 53.0625 10.9648C53.8359 10.0898 55.0898 9.23438 56.8242 8.39844C56.6133 7.96875 56.4414 7.52734 56.3086 7.07422C56.1758 6.62109 56.1094 6.125 56.1094 5.58594C56.1094 4.64844 56.3398 3.82031 56.8008 3.10156C57.2695 2.375 57.9375 1.8125 58.8047 1.41406C59.6719 1.00781 60.6719 0.804688 61.8047 0.804688C62.25 0.804688 62.6797 0.847656 63.0938 0.933594C63.5078 1.01172 63.875 1.14844 64.1953 1.34375C64.5156 1.53125 64.7695 1.78125 64.957 2.09375C65.1523 2.40625 65.25 2.78516 65.25 3.23047C65.25 3.65234 65.1914 4.03516 65.0742 4.37891C64.9648 4.71484 64.7969 5.03516 64.5703 5.33984C64.3516 5.63672 64.0586 5.92969 63.6914 6.21875C63.332 6.5 62.9453 6.76562 62.5312 7.01562C62.1172 7.26562 61.4336 7.65625 60.4805 8.1875C60.7773 8.78125 61.1523 9.46484 61.6055 10.2383C62.0664 11.0039 62.5156 11.7109 62.9531 12.3594C63.5312 11.7891 63.9414 11.2773 64.1836 10.8242C64.4336 10.3633 64.5586 9.92188 64.5586 9.5C64.5586 9.26562 64.4922 9.08984 64.3594 8.97266C64.2344 8.84766 64.0195 8.77344 63.7148 8.75L63.8789 7.97656H67.1016L67.4531 8.65625C66.8125 10.3906 65.5742 12.0234 63.7383 13.5547C63.9883 13.9531 64.2109 14.2617 64.4062 14.4805C64.6016 14.6914 64.7891 14.8438 64.9688 14.9375C65.1562 15.0312 65.3789 15.0781 65.6367 15.0781C66.0586 15.0781 66.5391 14.8555 67.0781 14.4102L67.7695 15.4883C67.0508 16.0977 66.3789 16.5352 65.7539 16.8008C65.1289 17.0586 64.4844 17.1875 63.8203 17.1875C63.1719 17.1875 62.6406 17.0664 62.2266 16.8242C61.8203 16.582 61.4141 16.1875 61.0078 15.6406ZM59.8711 6.92188C60.5586 6.54688 61.1133 6.19531 61.5352 5.86719C61.957 5.53125 62.2812 5.16797 62.5078 4.77734C62.7422 4.38672 62.8594 3.95703 62.8594 3.48828C62.8594 3.03516 62.7461 2.67969 62.5195 2.42188C62.3008 2.15625 62.0039 2.02344 61.6289 2.02344C61.1836 2.02344 60.7891 2.15234 60.4453 2.41016C60.1094 2.66797 59.8477 3.01172 59.6602 3.44141C59.4805 3.87109 59.3906 4.34375 59.3906 4.85938C59.3906 5.54688 59.5508 6.23438 59.8711 6.92188ZM60.1641 14.4219C59.9688 14.1328 59.707 13.7148 59.3789 13.168C59.0586 12.6133 58.6992 11.9844 58.3008 11.2812C57.9023 10.5781 57.625 10.0703 57.4688 9.75781C56.6719 10.2734 56.082 10.8008 55.6992 11.3398C55.3242 11.8711 55.1367 12.4336 55.1367 13.0273C55.1367 13.7617 55.3281 14.3203 55.7109 14.7031C56.1016 15.0859 56.6445 15.2773 57.3398 15.2773C57.8477 15.2773 58.3164 15.2109 58.7461 15.0781C59.1836 14.9453 59.6562 14.7266 60.1641 14.4219Z" fill="#FED136"/>
<path d="M82.3828 12.043H77.8008L77.6367 12.3359C77.457 12.6484 77.3008 12.9336 77.168 13.1914C77.043 13.4414 76.9297 13.6992 76.8281 13.9648C76.7266 14.2227 76.6523 14.457 76.6055 14.668C76.5664 14.8711 76.5469 15.0664 76.5469 15.2539C76.5469 15.8164 76.8789 16.1406 77.543 16.2266L77.3672 17H72.4219L72.5977 16.2266C72.8711 16.1641 73.1133 16.0586 73.3242 15.9102C73.5273 15.7617 73.7227 15.5625 73.9102 15.3125C74.0977 15.0547 74.3633 14.6172 74.707 14L81.9844 0.921875H85.3594L85.8633 13.4492C85.8789 13.9258 85.9062 14.3047 85.9453 14.5859C85.9844 14.8594 86.0352 15.0938 86.0977 15.2891C86.1602 15.4844 86.2344 15.6484 86.3203 15.7812C86.4141 15.9141 86.5312 16.0156 86.6719 16.0859C86.8125 16.1562 86.9688 16.2031 87.1406 16.2266L86.9648 17H80.9062L81.082 16.2266C81.4258 16.2031 81.6953 16.1172 81.8906 15.9688C82.0938 15.8125 82.2344 15.6055 82.3125 15.3477C82.3906 15.082 82.4297 14.7148 82.4297 14.2461C82.4297 13.9102 82.4219 13.5586 82.4062 13.1914L82.3828 12.043ZM78.5273 10.6719H82.3477L82.3008 7.85938C82.2852 6.85938 82.2773 6.03125 82.2773 5.375C82.2773 4.875 82.2812 4.36328 82.2891 3.83984H82.1484L78.5273 10.6719Z" fill="#FED136"/>
<path d="M90.4336 13.7188C90.4727 14.2812 90.5859 14.7344 90.7734 15.0781C90.9688 15.4141 91.207 15.6484 91.4883 15.7812C91.7695 15.9062 92.0977 15.9688 92.4727 15.9688C93.0898 15.9688 93.5664 15.8203 93.9023 15.5234C94.2383 15.2188 94.4062 14.793 94.4062 14.2461C94.4062 13.918 94.3516 13.6406 94.2422 13.4141C94.1328 13.1875 93.9531 12.9688 93.7031 12.7578C93.4531 12.5391 93.0469 12.2578 92.4844 11.9141C91.7031 11.4453 91.1328 10.9609 90.7734 10.4609C90.4219 9.95312 90.2461 9.38672 90.2461 8.76172C90.2461 7.61328 90.6758 6.73047 91.5352 6.11328C92.3945 5.49609 93.5977 5.1875 95.1445 5.1875C95.7461 5.1875 96.3906 5.23828 97.0781 5.33984C97.7734 5.43359 98.4062 5.5625 98.9766 5.72656L98.3672 8.52734H96.8789C96.8086 7.80078 96.6211 7.26562 96.3164 6.92188C96.0195 6.57812 95.5898 6.40625 95.0273 6.40625C94.5039 6.40625 94.082 6.54297 93.7617 6.81641C93.4492 7.08203 93.293 7.44531 93.293 7.90625C93.293 8.19531 93.3516 8.44922 93.4688 8.66797C93.5938 8.88672 93.7891 9.10547 94.0547 9.32422C94.3203 9.54297 94.7148 9.80859 95.2383 10.1211C96.0664 10.6133 96.6602 11.1211 97.0195 11.6445C97.3789 12.168 97.5586 12.7812 97.5586 13.4844C97.5586 14.2812 97.3438 14.9609 96.9141 15.5234C96.4922 16.0859 95.9102 16.5039 95.168 16.7773C94.4336 17.0508 93.5938 17.1875 92.6484 17.1875C91.8125 17.1875 91.0352 17.1367 90.3164 17.0352C89.5977 16.9336 88.9219 16.7969 88.2891 16.625L88.9453 13.7188H90.4336Z" fill="#FED136"/>
<path d="M101.051 13.7188C101.09 14.2812 101.203 14.7344 101.391 15.0781C101.586 15.4141 101.824 15.6484 102.105 15.7812C102.387 15.9062 102.715 15.9688 103.09 15.9688C103.707 15.9688 104.184 15.8203 104.52 15.5234C104.855 15.2188 105.023 14.793 105.023 14.2461C105.023 13.918 104.969 13.6406 104.859 13.4141C104.75 13.1875 104.57 12.9688 104.32 12.7578C104.07 12.5391 103.664 12.2578 103.102 11.9141C102.32 11.4453 101.75 10.9609 101.391 10.4609C101.039 9.95312 100.863 9.38672 100.863 8.76172C100.863 7.61328 101.293 6.73047 102.152 6.11328C103.012 5.49609 104.215 5.1875 105.762 5.1875C106.363 5.1875 107.008 5.23828 107.695 5.33984C108.391 5.43359 109.023 5.5625 109.594 5.72656L108.984 8.52734H107.496C107.426 7.80078 107.238 7.26562 106.934 6.92188C106.637 6.57812 106.207 6.40625 105.645 6.40625C105.121 6.40625 104.699 6.54297 104.379 6.81641C104.066 7.08203 103.91 7.44531 103.91 7.90625C103.91 8.19531 103.969 8.44922 104.086 8.66797C104.211 8.88672 104.406 9.10547 104.672 9.32422C104.938 9.54297 105.332 9.80859 105.855 10.1211C106.684 10.6133 107.277 11.1211 107.637 11.6445C107.996 12.168 108.176 12.7812 108.176 13.4844C108.176 14.2812 107.961 14.9609 107.531 15.5234C107.109 16.0859 106.527 16.5039 105.785 16.7773C105.051 17.0508 104.211 17.1875 103.266 17.1875C102.43 17.1875 101.652 17.1367 100.934 17.0352C100.215 16.9336 99.5391 16.7969 98.9062 16.625L99.5625 13.7188H101.051Z" fill="#FED136"/>
<path d="M114.82 17.1875C113.961 17.1875 113.203 17.0352 112.547 16.7305C111.898 16.418 111.387 15.9492 111.012 15.3242C110.645 14.6914 110.461 13.9219 110.461 13.0156C110.461 12.6719 110.484 12.2891 110.531 11.8672C110.594 11.3359 110.703 10.793 110.859 10.2383C111.039 9.59766 111.266 9.02734 111.539 8.52734C111.836 7.96484 112.18 7.48047 112.57 7.07422C112.961 6.66016 113.383 6.32031 113.836 6.05469C114.297 5.78125 114.797 5.57422 115.336 5.43359C115.977 5.26953 116.648 5.1875 117.352 5.1875C118.32 5.1875 119.133 5.36719 119.789 5.72656C120.445 6.07812 120.93 6.57031 121.242 7.20312C121.562 7.83594 121.723 8.57031 121.723 9.40625C121.723 10.4375 121.551 11.4727 121.207 12.5117C120.863 13.5508 120.387 14.4219 119.777 15.125C119.176 15.8281 118.461 16.3477 117.633 16.6836C116.805 17.0195 115.867 17.1875 114.82 17.1875ZM113.613 13.7773C113.613 14.5117 113.73 15.0625 113.965 15.4297C114.207 15.7891 114.586 15.9688 115.102 15.9688C115.391 15.9688 115.664 15.9102 115.922 15.793C116.188 15.668 116.445 15.4609 116.695 15.1719C116.953 14.875 117.184 14.5039 117.387 14.0586C117.59 13.6055 117.781 13.0508 117.961 12.3945C118.148 11.7305 118.293 11.082 118.395 10.4492C118.496 9.81641 118.547 9.22656 118.547 8.67969C118.547 7.89844 118.426 7.32422 118.184 6.95703C117.949 6.58984 117.582 6.40625 117.082 6.40625C116.426 6.40625 115.855 6.72656 115.371 7.36719C114.895 8 114.48 8.98438 114.129 10.3203C113.785 11.6484 113.613 12.8008 113.613 13.7773Z" fill="#FED136"/>
<path d="M131.426 13.8945L132.375 14.9141C131.555 15.7344 130.734 16.3203 129.914 16.6719C129.094 17.0156 128.191 17.1875 127.207 17.1875C126.402 17.1875 125.715 17.0156 125.145 16.6719C124.574 16.3281 124.145 15.8398 123.855 15.207C123.574 14.5664 123.434 13.8164 123.434 12.957C123.434 12.2773 123.516 11.6016 123.68 10.9297C123.797 10.4375 123.949 9.95312 124.137 9.47656C124.387 8.84375 124.68 8.29297 125.016 7.82422C125.414 7.27734 125.891 6.80469 126.445 6.40625C127.008 6.00781 127.637 5.70703 128.332 5.50391C129.035 5.29297 129.789 5.1875 130.594 5.1875C131.117 5.1875 131.684 5.23047 132.293 5.31641C132.902 5.39453 133.441 5.50781 133.91 5.65625L133.254 8.51562H131.145C131.16 8.35156 131.168 8.18359 131.168 8.01172C131.168 7.44922 131.082 7.04297 130.91 6.79297C130.738 6.53516 130.484 6.40625 130.148 6.40625C129.57 6.40625 129.02 6.73828 128.496 7.40234C127.973 8.06641 127.535 8.98828 127.184 10.168C126.832 11.3477 126.656 12.3828 126.656 13.2734C126.656 14.7422 127.191 15.4766 128.262 15.4766C128.801 15.4766 129.309 15.3555 129.785 15.1133C130.27 14.8711 130.816 14.4648 131.426 13.8945Z" fill="#FED136"/>
<path d="M140.859 0.699219L140.25 3.57031H137.215L137.859 0.699219H140.859ZM138.152 13.8711C138.066 14.2617 138.012 14.5508 137.988 14.7383C137.965 14.9258 137.953 15.082 137.953 15.207C137.953 15.543 138.039 15.7852 138.211 15.9336C138.391 16.082 138.695 16.1797 139.125 16.2266L138.996 17H134.121L135.949 8.82031C136.051 8.35156 136.121 7.98828 136.16 7.73047C136.199 7.46484 136.219 7.24219 136.219 7.0625C136.219 6.75781 136.145 6.54297 135.996 6.41797C135.855 6.28516 135.555 6.19531 135.094 6.14844L135.27 5.375L138.703 5.24609H140.039L138.152 13.8711Z" fill="#FED136"/>
<path d="M151.336 6.03125L152.391 5.1875L153.703 5.375L151.898 13.543C151.805 13.957 151.734 14.2891 151.688 14.5391C151.648 14.7891 151.629 15 151.629 15.1719C151.629 15.5234 151.715 15.7773 151.887 15.9336C152.059 16.0898 152.363 16.1875 152.801 16.2266L152.672 17H148.172L148.805 14.5977L148.652 14.5508C148.121 15.2383 147.625 15.7734 147.164 16.1562C146.711 16.5312 146.262 16.7969 145.816 16.9531C145.379 17.1094 144.871 17.1875 144.293 17.1875C143.746 17.1875 143.266 17.0586 142.852 16.8008C142.438 16.543 142.109 16.1367 141.867 15.582C141.625 15.0195 141.504 14.3086 141.504 13.4492C141.504 12.6289 141.598 11.8008 141.785 10.9648C141.98 10.1289 142.266 9.35156 142.641 8.63281C143.016 7.90625 143.488 7.28516 144.059 6.76953C144.629 6.25391 145.273 5.86328 145.992 5.59766C146.719 5.32422 147.508 5.1875 148.359 5.1875C149.523 5.1875 150.516 5.46875 151.336 6.03125ZM149.566 9.71094C149.621 9.46094 149.664 9.18359 149.695 8.87891C149.734 8.56641 149.754 8.26562 149.754 7.97656C149.754 7.46094 149.656 7.07031 149.461 6.80469C149.266 6.53906 148.945 6.40625 148.5 6.40625C147.773 6.40625 147.129 6.77344 146.566 7.50781C146.004 8.23438 145.551 9.21484 145.207 10.4492C144.863 11.6836 144.691 12.7891 144.691 13.7656C144.691 14.3359 144.773 14.7617 144.938 15.043C145.109 15.3242 145.371 15.4648 145.723 15.4648C146.238 15.4648 146.762 15.2148 147.293 14.7148C147.832 14.207 148.266 13.6133 148.594 12.9336C148.922 12.2539 149.215 11.3242 149.473 10.1445L149.566 9.71094Z" fill="#FED136"/>
<path d="M162.914 14.8672C162.359 15.4688 161.863 15.9297 161.426 16.25C160.988 16.5703 160.531 16.8086 160.055 16.9648C159.578 17.1133 159.027 17.1875 158.402 17.1875C157.77 17.1875 157.242 17.0742 156.82 16.8477C156.406 16.6133 156.105 16.3047 155.918 15.9219C155.73 15.5312 155.637 15.0938 155.637 14.6094C155.637 14.2422 155.664 13.8945 155.719 13.5664C155.773 13.2305 155.887 12.6836 156.059 11.9258L157.266 6.83984H155.684L155.848 6.06641C156.332 6.03516 156.711 5.95703 156.984 5.83203C157.258 5.69922 157.488 5.50781 157.676 5.25781C157.871 5.00781 158.055 4.66406 158.227 4.22656C158.398 3.78906 158.59 3.19531 158.801 2.44531H161.613L160.934 5.375H163.781L163.465 6.83984H160.594L159.293 12.1953C159.238 12.4297 159.188 12.6602 159.141 12.8867C159.094 13.1133 159.055 13.332 159.023 13.543C158.992 13.7461 158.969 13.918 158.953 14.0586C158.945 14.1914 158.941 14.3125 158.941 14.4219C158.941 14.7891 159.008 15.0586 159.141 15.2305C159.273 15.3945 159.469 15.4766 159.727 15.4766C160.078 15.4766 160.438 15.3516 160.805 15.1016C161.18 14.8516 161.582 14.4648 162.012 13.9414L162.914 14.8672Z" fill="#FED136"/>
<path d="M173.578 14.5625C172.789 15.4531 171.938 16.1133 171.023 16.543C170.117 16.9727 169.133 17.1875 168.07 17.1875C167.156 17.1875 166.379 17.0273 165.738 16.707C165.098 16.3867 164.613 15.9141 164.285 15.2891C163.965 14.6562 163.805 13.9023 163.805 13.0273C163.805 12.6211 163.859 12.1016 163.969 11.4688C164.117 10.6094 164.344 9.84375 164.648 9.17188C165.031 8.34375 165.531 7.63281 166.148 7.03906C166.766 6.44531 167.488 5.98828 168.316 5.66797C169.152 5.34766 170.066 5.1875 171.059 5.1875C172.23 5.1875 173.121 5.40234 173.73 5.83203C174.34 6.25391 174.645 6.90234 174.645 7.77734C174.645 8.37109 174.523 8.89453 174.281 9.34766C174.047 9.80078 173.652 10.2109 173.098 10.5781C172.543 10.9453 171.758 11.2422 170.742 11.4688C169.734 11.6953 168.516 11.8242 167.086 11.8555C166.984 12.3164 166.934 12.793 166.934 13.2852C166.934 13.5742 166.961 13.8516 167.016 14.1172C167.07 14.375 167.168 14.6055 167.309 14.8086C167.449 15.0117 167.637 15.1758 167.871 15.3008C168.105 15.418 168.406 15.4766 168.773 15.4766C169.461 15.4766 170.082 15.3398 170.637 15.0664C171.191 14.7852 171.844 14.2891 172.594 13.5781L173.578 14.5625ZM167.367 10.625C168.805 10.5859 169.902 10.3125 170.66 9.80469C171.426 9.28906 171.809 8.5625 171.809 7.625C171.809 7.22656 171.715 6.92578 171.527 6.72266C171.348 6.51172 171.094 6.40625 170.766 6.40625C170.039 6.40625 169.383 6.76562 168.797 7.48438C168.219 8.20312 167.742 9.25 167.367 10.625Z" fill="#FED136"/>
<path d="M176.848 13.7188C176.887 14.2812 177 14.7344 177.188 15.0781C177.383 15.4141 177.621 15.6484 177.902 15.7812C178.184 15.9062 178.512 15.9688 178.887 15.9688C179.504 15.9688 179.98 15.8203 180.316 15.5234C180.652 15.2188 180.82 14.793 180.82 14.2461C180.82 13.918 180.766 13.6406 180.656 13.4141C180.547 13.1875 180.367 12.9688 180.117 12.7578C179.867 12.5391 179.461 12.2578 178.898 11.9141C178.117 11.4453 177.547 10.9609 177.188 10.4609C176.836 9.95312 176.66 9.38672 176.66 8.76172C176.66 7.61328 177.09 6.73047 177.949 6.11328C178.809 5.49609 180.012 5.1875 181.559 5.1875C182.16 5.1875 182.805 5.23828 183.492 5.33984C184.188 5.43359 184.82 5.5625 185.391 5.72656L184.781 8.52734H183.293C183.223 7.80078 183.035 7.26562 182.73 6.92188C182.434 6.57812 182.004 6.40625 181.441 6.40625C180.918 6.40625 180.496 6.54297 180.176 6.81641C179.863 7.08203 179.707 7.44531 179.707 7.90625C179.707 8.19531 179.766 8.44922 179.883 8.66797C180.008 8.88672 180.203 9.10547 180.469 9.32422C180.734 9.54297 181.129 9.80859 181.652 10.1211C182.48 10.6133 183.074 11.1211 183.434 11.6445C183.793 12.168 183.973 12.7812 183.973 13.4844C183.973 14.2812 183.758 14.9609 183.328 15.5234C182.906 16.0859 182.324 16.5039 181.582 16.7773C180.848 17.0508 180.008 17.1875 179.062 17.1875C178.227 17.1875 177.449 17.1367 176.73 17.0352C176.012 16.9336 175.336 16.7969 174.703 16.625L175.359 13.7188H176.848Z" fill="#FED136"/>
</svg>
